<?xml version="1.0" encoding="utf-8"?>
<!-- Generator: Adobe Illustrator 25.0.1, SVG Export Plug-In . SVG Version: 6.00 Build 0)  -->
<svg version="1.1" id="Camada_1" xmlns="http://www.w3.org/2000/svg" xmlns:xlink="http://www.w3.org/1999/xlink" x="0px" y="0px"
	 viewBox="0 0 1024 1024" style="enable-background:new 0 0 1024 1024;" xml:space="preserve">
<style type="text/css">
	.st0{fill:#070809;}
	.st1{fill:#0A1730;}
	.st2{fill:#46AFCD;}
	.st3{fill:#65200F;}
	.st4{fill:#9E3C17;}
	.st5{fill:#0C5485;}
	.st6{fill:#87D6F6;}
	.st7{fill:#2080A3;}
	.st8{fill:#CED2D8;}
	.st9{fill:#FEFEFE;}
	.st10{fill:#AFB5BD;}
	.st11{fill:#FE9667;}
	.st12{fill:#FE6837;}
</style>
<path class="st0" d="M506.6,56.6c5.7-0.5,11.6-0.2,17,1.9c6.4,2.5,12.1,6.7,16.2,12.2c5.6,7.7,10,16.3,14.8,24.5l15.7,26.4
	l53.9,92.7l53.2,90.6l13.3,22.9c2.4,4.1,5,8.2,7,12.6c0.1,0.2,7.3,1.4,8.9,2.3c4.2,2.6,7.7,6.3,11.1,9.7
	c12.7,13.1,24.7,30.2,29.1,48.1c0.9,3.6,3,10.8,0.8,14c-2.6,3.8-6.3,3.6-10.5,4.2l20.7,35.5l34.8,58.8l104.8,181.1l19.5,33.6
	l11.7,20.1c3.1,5.5,6.3,10.6,7.6,16.9l0.2,0.8c1.7,8.2-0.3,17.5-4.5,24.7c-4.8,8.2-12.6,14.1-21.9,16.5l-0.9,0.2
	c-5.1,1.3-10.6,0.9-15.9,0.9l-21.2,0l-65.1,0l-296.5,0.1l-276.8,0l-79.3,0l-23,0c-4.4,0-9.1,0.3-13.5-0.3l-0.8-0.1
	c-4.5-0.7-8.3-1.9-12.3-4.2c-8-4.6-14.1-12.4-16.4-21.3c-2.1-7.9-1.2-15.9,1.9-23.3c1.9-4.5,4.6-8.8,7-13l12-20.9l51-87.7l26.1-45.2
	l98.2-168.8c-4-3.2-8.1-6.6-10.1-11.4c-2.4-5.9-0.7-13.2,1.5-19c6.1-15.5,17.7-28.9,28.6-41.2c3.4-3.9,7.7-9.6,12.5-11.7
	c0.9,0.1,1.6,0.1,2.4,0.7c2.2,1.6,2.3,4.1,2.7,6.6L481.9,72.5C488.1,63.5,495.9,58.5,506.6,56.6z"/>
<path class="st1" d="M283.2,413.2c9.9-1.4,19.6-5.9,27.8-11.5c-2.3,5.3-5.2,10.3-7.8,15.5c-0.6,1.2-2,4.7-3.1,5.2
	C293.1,420.6,287.9,418.8,283.2,413.2z"/>
<path class="st2" d="M280.2,401.1c4.2-18.5,19.7-34.6,31.7-48.6l0.8,7.8c-0.3,4.5-1.7,7.8-3.7,11.7c-4.9,9.8-12.1,19.1-20.2,26.4
	l-7.5,5.6l-0.7-0.1L280.2,401.1z"/>
<path class="st3" d="M577.8,338.5l0.6-0.2c3.2-1.2,6.2-3.4,9.4-4.8c10.8-4.5,24.1-4.2,34.7,0.5c10.2,4.5,20.1,12.5,27.2,21.1
	l0.3,7.6c-1.7-2.4-3.8-4.2-6.1-5.9c-14.8-11.4-37.6-20-56.5-17.5l-0.9,0.1c-2.8,0.4-6.6,1.9-9.3,1.4L577.8,338.5z"/>
<path class="st3" d="M427.3,317.5c11.8,4.1,18.6,12.8,24.1,23.5c-18.9-6-38.2-2-55.5,7c-7.5,3.9-13.7,8.9-20.2,14.3
	c-0.1-1.1-0.2-1.7,0.2-2.7c1.6-1.2,3-3.8,4.4-5.4c7.5-8.9,13.5-15.9,24.7-20.4c2.7-1.1,5.5-2,8.3-2.7c2.5-0.6,17.3-2.4,18.2-3.6
	L427.3,317.5z"/>
<path class="st4" d="M375.9,359.6c1-7.2,2.7-14.6,5.9-21.2c4.8-10.1,12.6-19.4,23.4-23.1c8.4-2.9,14.4-1.5,22.1,2.3l4.1,10
	c-0.9,1.2-15.7,3-18.2,3.6c-2.8,0.7-5.6,1.6-8.3,2.7c-11.2,4.6-17.2,11.5-24.7,20.4C378.9,355.8,377.5,358.3,375.9,359.6z"/>
<path class="st5" d="M312.7,360.3l0.1,0.4c1.7,7.4,7.4,14.6,13.4,19.1c-4.5,5.5-8.4,11.4-12.3,17.3c-0.8,1.2-2.6,3.2-2.9,4.5
	c-8.2,5.7-17.9,10.2-27.8,11.5c-2.9-3.6-3.4-7.7-3-12.1l0.4,2.9l0.7,0.1l7.5-5.6c8.1-7.3,15.3-16.6,20.2-26.4
	C310.9,368.1,312.4,364.8,312.7,360.3z"/>
<path class="st4" d="M577.8,338.5c2.5-8.8,9.1-16.3,17.1-20.7c7.6-4.3,16.8-5.7,25.3-3.2c10.6,3.1,18,10.2,23.1,19.8
	c3.5,6.5,5.4,13.4,6.4,20.7c-7.1-8.5-17-16.6-27.2-21.1c-10.6-4.6-23.9-5-34.7-0.5c-3.2,1.4-6.2,3.6-9.4,4.8L577.8,338.5z"/>
<path class="st5" d="M698.3,396c0.5-16.2,0.1-33.3,4.4-49.1c15.2,10.5,28,27.9,35.1,44.9c1.6,3.7,3.2,7.7,4,11.6l0.2,1.7l0.1,0.5
	c0.6,1.5,0.7,3.3,0.1,4.8c-0.3,0.7-0.4,1.1-1.2,1.3c-1.7,0.5-3.8,0.2-5.5,0.1c-8-0.3-15.4-2.1-23.2-4.1c-2.2-0.6-4.8-1.8-7.1-2
	c-0.7-0.4-1.5-1.8-2-2.5C701.5,400.9,699.8,398.5,698.3,396z"/>
<path class="st2" d="M742,405.7l-0.2,0.3l-0.4,0.9c-7.4-5.9-16.1-9.5-23.2-16c-11.5-10.5-13.7-25.9-14.4-40.7l4.3,3.8
	c8.6,6.8,16.5,17.6,22,27c1.7,3,3.4,6,4.7,9.2c1.6,3.8,3.8,12.7,7,15L742,405.7z"/>
<path class="st6" d="M365.2,339.9l-35,33.2c-0.7-0.8-1.3-1.4-1.8-2.4c1.3-3.5,3.6-7,5.5-10.2l12.5-21.5l41.6-71.9l77.8-133.9
	l30.1-50.9c1.5-2.4,3.7-4.8,6.1-6.4c4.8-3.1,9.9-2.7,15.2-1.4l-18,32.1l-40.6,69.8L401,276.5l-25.4,44.1c-3.2,5.6-7,11.2-9.9,17
	C365.3,338.4,365.2,339,365.2,339.9z"/>
<path class="st6" d="M112,787c-2.9-2.4-5.1-4.8-6.5-8.4c-1.1-2.9-1.9-8.5-0.4-11.4l187-324.8l-7.7,26.3c-2.7,11-4,21.7-5.7,32.9
	c-6.4,7.8-11.2,17.2-16.3,25.9L238.1,569L160,703.2L134.8,747L112,787z"/>
<path class="st2" d="M656,364.2l-1.1-17.6l16.2,15.7c9.9,10.4,19.2,21.9,27.3,33.7c1.5,2.5,3.2,4.9,4.9,7.2c0.5,0.7,1.3,2.1,2,2.5
	c9.6,18.1,17.8,36.9,23.3,56.8c11.4,41.5,10.2,87.1-2.4,128.2c-17.2,56-57.2,103.8-109,131c-52.2,27.3-115.7,32.7-171.8,15.1
	c-55.9-17.5-104.4-56.9-131.3-108.9c-10.5-20.4-18.7-42.1-22.3-64.8c-0.8-5.4-1.8-10.6-1.8-16c2,2.4,2.6,9.7,3.5,13
	c1.6,5.9,3.5,11.8,5.6,17.5c7.9,20.9,19.3,41.6,33.3,59c37.1,46.4,93.3,80.7,152.8,86.9c50.6,5.3,102.5-6.8,142.3-39.4
	c6.3-5.1,11.9-11.2,17.4-17.1c26-28.4,44-64.1,52.3-101.7c3.3-14.9,4.6-29.9,6-45c0.5-5.6,0.4-11.3,0.4-17
	c-0.2-39.4-11.7-76.1-30.1-110.7c-4-7.5-7.9-16-13.4-22.5l-0.8-1.2l-0.9,1.1l-1.8-0.6c0-1.6-0.2-3-0.5-4.6L656,364.2z"/>
<path class="st2" d="M278.7,501.5c-0.9,12.8-1.5,25.4-0.7,38.2c3.1,50,22.9,99.3,55.9,137c29.1,33.3,67.7,59.8,110.7,71.5
	c-2.8,0.4-5.5,0-8.2-0.4c-1.4-0.7-4.1-0.3-5.7-0.4l-16.7-0.1l-105.1-0.2l-174-0.2l25.3-43.8L238.1,569l24.3-41.6
	C267.5,518.8,272.3,509.4,278.7,501.5z"/>
<path class="st2" d="M586.6,747.2c7.2-2.2,14.2-5.3,21-8.4c45-19.9,83.6-54.5,107.9-97.4c23.3-41.1,34.1-87.7,30.7-134.8
	c-1.4-18.8-5.2-37.2-10.2-55.4l170.4,295.1c-2.8,1.6-65.7,0.5-73.6,0.5l-173.3-0.1l-46.5-0.2l-10.1,0c-1.7,0-3.7-0.2-5.3,0.3
	C594.7,747,589.1,748.3,586.6,747.2z"/>
<path class="st2" d="M517.2,74.7c3.4,1.5,6.3,3,8.5,6.1c4.5,6.1,7.9,13.6,11.8,20.2l31.7,53.8L643.8,282l43.7,75.7
	c0,2-0.3,3.4-1.1,5.2l-0.8,0c-8.3-9.3-16.8-17.8-26.4-25.7c-3.7-3-7.9-5.6-11.4-8.7c-2-1.7-3.7-4.1-5.4-6.1
	c-2.9-3.2-5.9-6.2-9.6-8.5c-4.4-2.9-9.2-4.3-14.2-5.7c-3.9-1-8.2-0.9-12.1-0.4c-1.4,0.2-3.5,0.8-4.9,0.7c-1.1-0.1-3.2-1.2-4.3-1.7
	l-13.5-5.1c-6.1-2.1-12.3-3.8-18.5-5.3c-36.9-8.8-77.9-8.4-114.6,1.5c-9.9,2.7-18.9,6.3-28.5,9.7c-1.9,0.7-4.6,0.3-6.6,0.3
	c-7.4-0.1-14.1,1.6-20.5,5.4c-7.1,4.2-10.7,10.6-16.2,16.3c-3.6,3.7-9.3,7.3-13.7,10.1c-0.1-0.9,0.1-1.5,0.5-2.3
	c2.9-5.8,6.7-11.3,9.9-17l25.4-44.1l57.6-99.9l40.6-69.8L517.2,74.7z"/>
<path class="st7" d="M906.5,746.4c3.4,5.1,6,10.8,9,16.1c1.2,2.2,3.4,5,3.9,7.4c0.4,1.6,0.1,3.7-0.2,5.3c-0.9,5-4.1,9.4-8.3,12.2
	c-2.4,1.6-4.9,2.4-7.8,2.6c-10.3,0.5-20.8-0.1-31.1-0.2l-56.3-0.1l-209.4,0.1l-179.2,0l-190.1,0.2l-82.7,0l-22.9,0.1
	c-4.2,0-9.2,0.6-13.3-0.4c-2.1-0.5-4.3-1.4-6.1-2.7l22.8-40l174,0.2l105.1,0.2l16.7,0.1c1.6,0,4.3-0.3,5.7,0.4
	c2.7,0.4,5.5,0.8,8.2,0.4c33.9,9.8,69.2,13.4,104.2,7.8c12.8-2.1,25.3-5.5,37.8-8.8c2.5,1,8.1-0.3,11.1-0.4c1.7-0.5,3.6-0.3,5.3-0.3
	l10.1,0l46.5,0.2l173.3,0.1C840.8,746.9,903.7,747.9,906.5,746.4z"/>
<path class="st5" d="M586.6,747.2c2.5,1,8.1-0.3,11.1-0.4l1.1,0.5c-11.8,5.4-23.6,11.2-35.8,15.4c-31.6,11-65.4,11.2-96.8-0.2
	c-10.3-3.7-21-7.9-30.3-13.7c0.2-0.8,0-0.5,0.5-0.9c2.7,0.4,5.5,0.8,8.2,0.4c33.9,9.8,69.2,13.4,104.2,7.8
	C561.6,753.9,574,750.5,586.6,747.2z"/>
<path class="st6" d="M458.8,348.6c-2.1-12.5-8.1-23.3-18.6-30.6l-4.6-3.1c11.3-3.1,22.4-6.8,33.9-8.9c38.2-6.9,81.5-4.5,117.9,9.4
	c-8.9,8-16.9,16.7-17.4,29.3c-0.1,2.1-0.2,3.1,1.2,4.8c15.6-6.5,33.4-5.9,48.9,0.5c13.3,5.4,25.6,14.6,35.7,24.9l0.2-10.7l0.1,0.5
	c0.4,1.6,0.5,3,0.5,4.6l1.8,0.6l0.9-1.1l0.8,1.2c5.4,6.5,9.4,15,13.4,22.5c18.4,34.6,29.9,71.3,30.1,110.7c0,5.6,0.2,11.4-0.4,17
	c-1.4,15.1-2.7,30.1-6,45c-8.3,37.6-26.3,73.3-52.3,101.7c-5.5,6-11.1,12-17.4,17.1c-39.8,32.6-91.7,44.7-142.3,39.4
	c-59.5-6.3-115.7-40.5-152.8-86.9c-14-17.5-25.3-38.1-33.3-59c-2.2-5.7-4-11.6-5.6-17.5c-0.9-3.3-1.5-10.6-3.5-13
	c-0.7-4.2-0.8-8.7-1-12.9c-0.6-11.8-0.2-23.7,1.3-35.4c7.3-57.7,34.5-112.6,80.8-148.5l-0.7,3.3c-1.5,7.3-1.6,14.9-0.2,22.2
	c2.2-0.5,7.5-7.1,9.5-8.8c7.4-6.6,15.5-12,24.5-16c13.1-5.7,28.5-8.1,42.6-4.9c3.9,0.9,7.6,2.5,11.4,3.9L458.8,348.6z"/>
<path class="st7" d="M571.1,349.5c15.6-6.5,33.4-5.9,48.9,0.5c13.3,5.4,25.6,14.6,35.7,24.9l0.2-10.7l0.1,0.5c0.4,1.6,0.5,3,0.5,4.6
	l1.8,0.6l0.9-1.1l0.8,1.2c-0.3,0.3-0.8,0.4-1,0.8c-0.3,0.6-0.3,2.7-0.4,3.5l-1,7.7c-17.7-15.3-42.3-27.4-65.7-29.7
	c-4.3-0.4-8.7-0.3-13,0c-2.3,0.1-5,0.6-7.2,0.3C571.8,351,571.9,350.7,571.1,349.5z"/>
<path class="st7" d="M370.1,375.7c2.2-0.5,7.5-7.1,9.5-8.8c7.4-6.6,15.5-12,24.5-16c13.1-5.7,28.5-8.1,42.6-4.9
	c3.9,0.9,7.6,2.5,11.4,3.9l0.7-1.1c0.3,1.9,0.2,3.9,0.2,5.8c-9.4-1.9-18.4-2.7-27.9-1.6c-16.4,1.8-32.7,9.6-46.3,18.6
	c-4.5,3-7.6,6.5-11.3,10.3C372.1,379.7,371,377.9,370.1,375.7z"/>
<path class="st7" d="M359.6,482.6c-1.8-2.1-2.2-4.5-2.9-7.1c-5.5-20.5-1.3-43.1,9.3-61.2c9.6-16.5,24.8-28.9,43.3-33.7
	c17.5-4.5,37.5-1.5,53,7.7c16.5,9.8,26.7,25.8,31.3,44.2c3.3,13.2,3.6,27.3,1.6,40.8c-0.7,4.7-1.4,9.6-3.8,13.8
	c0.7-9.2,1.7-17.7,0.9-27c-1.6-19.7-12.3-40.7-27.4-53.4c-12.7-10.7-28.6-15.8-45.1-14.1c-17,1.7-31.7,10.6-42.5,23.7
	c-12.7,15.4-18.8,33.4-18.7,53.4C358.6,474,359.2,478.4,359.6,482.6z"/>
<path class="st7" d="M532.5,469.6c-1.4-3.1-1.7-6-2-9.4c-0.8-7.4-1-15.2,0.4-22.5c3.6-18.4,12.1-35.3,27.8-46.2
	c13.9-9.6,33.3-13.9,49.9-10.9l1,0.2c19.3,3.6,35.9,14.1,47.2,30.2c12.6,18,18.5,40.3,14.5,62c-1.2,6.6-4.8,22-9.5,26.5
	c0.6-3.4,1.9-6.7,2.7-10c1.1-4.5,1.5-9.2,1.7-13.9c1.2-22.7-5.7-44.3-21-61.2c-10.8-11.9-27.1-20.5-43.3-21.2
	c-15.7-0.7-32.2,5.2-43.8,15.9c-12.9,11.9-21.5,28.7-24.4,46C532.8,459.9,532.7,464.8,532.5,469.6z"/>
<path class="st0" d="M359.6,482.6c-0.4-4.3-1-8.6-1-12.9c0-19.9,6-37.9,18.7-53.4c10.8-13.1,25.5-22,42.5-23.7
	c16.5-1.7,32.5,3.5,45.1,14.1c15.1,12.7,25.8,33.7,27.4,53.4c0.8,9.3-0.2,17.8-0.9,27c-0.9,4.4-2.8,9-5.1,12.8
	c-6.5,10.8-15.9,16.3-28,19.2c-15.5,3.7-32.5,4-48.4,3.1c-6.9-0.4-14.5-0.9-21.2-3c-3-1-5.5-2.4-8.2-4c-2,0.4-3.7,1-5.6,1.9
	c-10.1,4.8-15,13.5-18.6,23.7l-0.2,0.5c-0.1-0.7-0.2-1.3-0.1-1.9c1.1-10.4,8.4-20.7,16.4-27C366.3,503.1,362.3,493.5,359.6,482.6z"
	/>
<path class="st8" d="M388,413.1l-0.1,0.5c-0.4,2.6-2.1,3.8-3.7,5.7c-2,2.3-4,4.9-5.7,7.4c-7.2,11-11,30.6-9.7,43.6
	c1,10.4,4.1,21.6,9.1,30.8c1.9,3.4,4.3,6.4,6.3,9.8c1.1,1.8,3.3,2.4,4.4,4.4c-2.8-0.6-4.7-2.2-7.2-3.1c-1.3-0.4-3.3-0.2-4.7-0.2
	c-0.8-0.6-1.5-1.3-2.1-2.1c-2.8-3.5-4.8-8.4-6.4-12.6c-4.6-12.3-6.1-23.9-4.6-37C365.6,443.3,374.4,423.9,388,413.1z"/>
<path class="st9" d="M388,413.1c11.8-10,25.7-16.5,41.5-15.4c16.1,1.2,31.2,9.4,41.7,21.6c13.9,16.4,19.3,36.3,17.6,57.5
	c-1,12.5-4.8,22.9-14.5,31.3c-7.5,6.4-18.5,8.2-28,9.4c-13.5,1.6-27.2,1.9-40.8,0.7c-5.5-0.5-11.6-1.1-16.8-3
	c-1.1-2-3.3-2.6-4.4-4.4c-2-3.3-4.5-6.3-6.3-9.8c-5-9.2-8-20.4-9.1-30.8c-1.3-13,2.5-32.6,9.7-43.6c1.7-2.5,3.7-5.1,5.7-7.4
	c1.6-1.9,3.3-3,3.7-5.7L388,413.1z"/>
<path class="st0" d="M460.4,446.1c2.1-0.1,3.9,0,5.9,0.6c5.5,1.6,9.6,5.4,12.4,10.3c4.6,8.2,5.5,17,3,26c-1.9,6.7-6.3,14-12.6,17.4
	c-5,2.7-10.6,2.7-15.9,1l-0.8-0.4c-2.8-1.5-5-3.5-7.1-5.9c-6.2-7.1-6.9-15.1-6.3-24.1c1.6,1.1,3.5,2.6,5.4,3.2
	c1.8,0.5,4.8,0.5,6.5-0.4c3.2-1.8,5.3-4.4,6.3-7.8c0.5-1.7,0.8-7-0.2-8.5l-0.6-0.8c-1.9-2.5-4-4-6.5-5.8
	C453.1,448,456.2,446.8,460.4,446.1z"/>
<path class="st0" d="M532.5,469.6c0.2-4.8,0.3-9.7,1.1-14.4c2.9-17.3,11.5-34,24.4-46c11.6-10.7,28.1-16.6,43.8-15.9
	c16.2,0.7,32.5,9.3,43.3,21.2c15.4,16.9,22.3,38.5,21,61.2c-0.3,4.7-0.7,9.4-1.7,13.9c-0.8,3.4-2.1,6.6-2.7,10
	c-2,5.6-5.2,11-8.3,16.2c9.3,5,15,9,21.3,17.8c-7-4.6-15.9-11.3-24.2-13.1c-1.8-0.4-4.3,0.2-6.2,0.3l-12.3,1.1
	c-12.3,0.9-24.6,0.7-36.9,0.7c-8.4,0-17.4,0.8-25.6-1c-7.1-1.5-14.1-4.5-19.8-9.2C537.7,502.5,533.6,484.3,532.5,469.6z"/>
<path class="st9" d="M593.8,399.2c12.3-1.8,27.8,3.5,37.7,10.8c15.4,11.4,25.8,29.2,28.7,48c2.6,17.2,0,33.2-7.4,48.9
	c-1.5,3.1-2.8,6.4-4.8,9.2l-43.2,1.4c-16.4,0.1-36.6,2.5-50.8-7.7c-9.9-7.2-16-21.5-17.5-33.3c-2.4-17.9,3.1-37.8,14.2-52
	C561.8,410,575.6,401.4,593.8,399.2z"/>
<path class="st0" d="M564.8,448.1c7.3-0.7,11.8,1.1,17.6,5.4c-1.8,0.7-3.9,1.5-5.4,2.7c-2.3,1.7-4,5.1-4.4,7.9
	c-0.5,3.8,0.5,6.7,2.9,9.7c1.6,1.9,3.6,3.4,6.2,3.5c4.6,0.2,7.5-2.9,10.6-5.8l0,4.2c-0.1,8.6-3.3,14.8-9.4,20.7
	c-2,1.5-4.1,2.8-6.5,3.6c-5.3,1.9-11.8,1-16.8-1.5c-6.4-3.3-11-9.3-13.2-16.1c-2.3-7.3-1.1-15.5,2.5-22.2
	C552.7,453.5,558,450.2,564.8,448.1z"/>
<path class="st1" d="M373.1,529.2c3-0.6,8.2,3.7,10.8,5.1c9.3,4.8,19.4,7.9,29.5,10.3c16.8,4.1,33.7,6.4,50.8,7.9
	c41.4,3.6,84.5,3.9,125.6-2.4c21.7-3.3,42.2-9.3,63-16c2.9,9.6,4.3,19.7,5.1,29.7c2.9,35.2-7.9,72.4-30.7,99.4
	c-8,9.5-17.4,18-28.1,24.5c-39.3,24-89.1,26.7-133.2,15.9c-31.8-7.7-57.9-26.5-74.9-54.4c-19.7-32.6-23.5-75.2-14.5-111.8
	c-1.2-1-2.7-2.2-3.3-3.7C372.8,532.3,372.5,530.8,373.1,529.2z"/>
<path class="st10" d="M582.6,556.2c3.9-0.8,8.1-0.9,12-1.5c11.2-1.6,22.5-3.7,33.2-7.4l1.3,5.6c-2.5,1.3-5.2,1.6-7.9,2.2
	c-5.8,1.2-11.6,2.3-17.5,2.9c-4.9,0.5-10.3,0.4-14.7,2.8C587.5,559.1,584.9,557.1,582.6,556.2z"/>
<path class="st8" d="M629.1,553l2.3,25.3c-9.8,5.5-19.8,8.9-30.4,12.3c-0.1-3.6-0.3-7.8-1.4-11.2l-0.2-0.7
	c-2.1-6.5-6.2-12.5-10.5-17.8c4.4-2.5,9.8-2.4,14.7-2.8c5.9-0.6,11.7-1.6,17.5-2.9C624,554.6,626.7,554.3,629.1,553z"/>
<path class="st11" d="M428.2,676.6c22.2,3.6,44.7,6.9,67.2,8c21.5,1.1,43.5,0.3,64.9-1.9c15-1.6,29.7-5.3,44.6-6.7l0.9,1
	c-1.3,2-4.5,3.7-6.5,5c-13.4,8.8-27.9,15-43.6,18.5c-13.2,2.9-27.1,4-40.6,4c-28,0.1-58.9-4.2-82.9-19.6l-7-4.7L428.2,676.6z"/>
<path class="st12" d="M428.2,676.6c8.2-10.8,20.9-20,32.9-26c13.4-6.8,28-8.8,42.3-4.1c-2.8,2.7-6.4,5.3-8.7,8.4l15.4-7.6
	c12.5-5.6,25.6-8.7,39.4-7c22.3,2.7,42,18.5,55.4,35.7c-14.9,1.4-29.7,5.1-44.6,6.7c-21.4,2.2-43.4,3-64.9,1.9
	C472.9,683.4,450.4,680.2,428.2,676.6z"/>
<path class="st9" d="M601.1,590.6c-10.9,2.9-21.8,5.7-33,7.4c-35.4,5.6-72.9,5.1-108.2-1.1c-20.8-3.7-41.3-9.3-60-19.4
	c-0.1-10.6,0.6-20.9,4.5-30.9c8.3,3.5,18.4,5,27.3,6.5c49.1,8.8,101.5,9.2,150.9,3c2.2,0.9,4.9,2.9,6.4,4.7
	c4.3,5.3,8.3,11.3,10.5,17.8l0.2,0.7C600.8,582.9,601,587,601.1,590.6z"/>
</svg>
