<?xml version="1.0" encoding="utf-8"?>
<!-- Generator: Adobe Illustrator 25.0.1, SVG Export Plug-In . SVG Version: 6.00 Build 0)  -->
<svg version="1.1" id="Camada_1" xmlns="http://www.w3.org/2000/svg" xmlns:xlink="http://www.w3.org/1999/xlink" x="0px" y="0px"
	 viewBox="0 0 1024 1024" style="enable-background:new 0 0 1024 1024;" xml:space="preserve">
<style type="text/css">
	.st0{fill:#FFEE62;}
	.st1{fill:#FCC615;}
	.st2{fill:#3297C5;}
	.st3{fill:#FFEE99;}
	.st4{fill:#ECD1AC;}
	.st5{fill:#3CB5E0;}
	.st6{fill:#FEE13A;}
	.st7{fill:#136496;}
	.st8{fill:#D9502C;}
	.st9{fill:#F37124;}
	.st10{fill:#E09931;}
	.st11{fill:#F4B83A;}
	.st12{fill:#117F38;}
	.st13{fill:#FBFBFA;}
	.st14{fill:#010202;}
	.st15{fill:#E3527B;}
	.st16{fill:#B61A22;}
	.st17{fill:#D13A62;}
	.st18{fill:#EC7596;}
	.st19{fill:#FAA3B8;}
	.st20{fill:#F3B0B4;}
	.st21{fill:#FEC9DA;}
</style>
<path class="st0" d="M40.3,377c-0.7-1.2-1.5-2.5-1.9-3.9c-0.6-2.5,0-5.7,1.4-7.9c1.5-2.3,3.8-4.1,6.5-4.7c3.2-0.7,5.5,0,8.1,1.8
	l-0.5,0.3c-1.8,1-3.1,1.3-5.1,1.5c-1.1,0.1-1.9,0.5-2.9,0.9c-2.2,3-1,6.4-3.1,9.6l-0.3,0.5C41.8,375.8,41.2,376.4,40.3,377z"/>
<path class="st1" d="M102.8,410.5l6.8-2.3c0,6.4,0.3,13-0.7,19.3c-1.6,0.1-2.6,0.3-4.1-0.6C101.3,423,102.7,415.6,102.8,410.5z"/>
<path class="st1" d="M54.4,362.2c2,2.6,4.4,5.9,3.8,9.4c-0.6,3-2.5,5.4-5.1,7c-2.3,1.5-5.2,1.9-7.8,1.3c-2-0.4-3.6-1.7-5.1-3
	c0.9-0.6,1.5-1.2,2.1-2.1l0.3-0.5c2.1-3.1,0.9-6.6,3.1-9.6c1-0.4,1.8-0.7,2.9-0.9c2-0.2,3.3-0.5,5.1-1.5L54.4,362.2z"/>
<path class="st2" d="M144.4,470.6c1.6,0,2.9,0.2,4.4,0.9c2.8,1.3,5,3.8,5.9,6.8c0.9,3.1,0.6,6.6-1.2,9.3c-2,3.1-4.8,4.1-8.2,4.9
	c-1.2-0.1-2.5-0.2-3.6-0.7c-2.8-1.1-5.1-3.7-6.2-6.5c-1-2.7-0.9-5.6,0.4-8.2C137.7,473.1,140.5,471.8,144.4,470.6z"/>
<path class="st1" d="M346.6,172.8c3.1-0.8,6.8-1,9.6,0.8l2.1,1.8l0,0c2.1,2.4,3.3,4.7,3.2,8c-0.1,3.2-1.5,6.1-3.9,8.2
	c-2.9,2.5-6.7,1.9-10.3,1.8c-2.4-1.2-4.8-2.8-6.1-5.3c-1.4-2.7-1.4-6.3-0.4-9.1C341.9,176,343.8,174.2,346.6,172.8z"/>
<path class="st3" d="M346.6,172.8c3.1-0.8,6.8-1,9.6,0.8l2.1,1.8c-1.8,2.1-6.6,1.4-9.3,3c-3.5,2-3.9,5.3-4.8,8.9l-0.6,0.3
	c-0.4-0.4-0.8-0.8-1.2-1.3c-0.8-1.3-0.6-2.9-0.4-4.4l0.1-0.9C342.9,177.3,344.7,175.8,346.6,172.8z"/>
<path class="st4" d="M296.2,381.8l1,0.1c-0.4,1.7-1.6,3.2-2.5,4.7l-5.3,8.7l-22.2,36.7l-7.1-13.2l-13.6-24.3c3-1.9,9.3-2.7,12.8-3.6
	L296.2,381.8z"/>
<path class="st5" d="M600.4,806.5l10.6,0l-0.4,133.2l-4.8,3.9c-1.9,1.5-3.4,3.6-5.3,5.1L600.4,806.5z"/>
<path class="st5" d="M411.1,806.2l10.2,0.1l0,144.7l-10.3-9.6L411.1,806.2z"/>
<path class="st5" d="M856.2,603.2c5.8,8,12.8,15.4,19.4,22.8l26.2,30.3l10.2,11.5c3,3.3,6.5,6.9,7.6,11.3c1,3.9,0.6,8.1,0.5,12.1
	l-0.1,18l-0.1,42.8c-1.2,0.5-2.1-0.1-3.3-0.5c-2.3-0.5-4.3-0.3-6.6-0.1l-0.1-46.1l0-13.5c0-3,0.2-6.4-0.5-9.3
	c-0.5-2.2-1.8-4.2-3.1-6c-5.4-7.3-12.1-14.1-18-21l-35.9-40.5C854.1,611.1,855.2,607.3,856.2,603.2z"/>
<path class="st6" d="M102.8,410.5c1.7-55.1,6.9-110.2,14-164.8l2.4-18.1c0.4-2.7,0.5-6.1,1.5-8.6l89-16.6c1.6,2.2,3.6,4.2,5,6.5
	l-0.3,0.7l-0.8-0.2c-1.9-0.5-4.3,0-6.3,0.2l-14.1,2l-32.2,5c-11.6,2.1-22.9,4.4-34.6,5.5l-5.9,46.2L112,362l-2.1,32.6
	c-0.1,4.4-0.5,9-0.2,13.4l-0.2,0.3L102.8,410.5z"/>
<path class="st5" d="M167.3,602.5l5.6,8.8c-3.5,3.3-6.6,7.1-9.9,10.6l-23.6,26.1c-9.2,10.3-19.2,20.1-27.7,31
	c-1.1,1.4-3.3,3.8-3.4,5.6c-0.4,4.7,0.2,10.1,0.2,14.8l0,37.3c0,4.8,0.6,10.4-0.2,15.1l-4.5-0.4c-2.2,0.1-4.2,0.5-6.4,0.9l0-46.1
	l0-14.1c0-3.5-0.2-6.9,0.7-10.3c2.1-8.1,26.9-33.1,34-40.8L167.3,602.5z"/>
<path class="st7" d="M629.8,938.6l1-0.1c10.4-1,20.1,2,28,8.8c5.5,4.8,12.4,14.8,12.8,22.3c0.1,1.5-0.1,2.4-1.2,3.6
	c-1.8,1.9-26,1.1-30.3,1.1l-27.2,0.1c-4.6,0-10.2,0.6-14.6-0.5c-0.8-0.9-1.4-1.4-1.7-2.7c-0.7-4.5,3.1-11.5,5.6-15.3
	C608.8,946.4,618.4,940.8,629.8,938.6z"/>
<path class="st7" d="M382.8,938.7c8.2-0.9,17.5,2.2,24.2,6.8c7.5,5.1,15.5,14.5,16.8,23.7c0.3,2,0.2,2.6-1,4.1
	c-3.1,1.2-7.4,0.6-10.8,0.6l-23.6,0l-27.9,0.1c-3.7,0-9.5,0.7-12.9-0.7c-0.6-0.8-1-1.1-1.1-2.1c-0.7-5.5,4.2-13.6,7.5-17.7
	C361.6,944.3,371.2,940,382.8,938.7z"/>
<path class="st8" d="M152.8,96.5l72.8,100.8l-39.7,7.7l-24-70.6C158.2,122,154,109.4,152.8,96.5z"/>
<path class="st5" d="M101.1,755.6c1.4-0.1,3-0.3,4.3,0.1c4,1.1,8.4,4.9,11.9,7.2c7,4.7,13.9,9.8,21.6,13.3c2.8,1.3,9.5,3.3,10.6,6.1
	c0.6,1.6,0.3,2.7-0.3,4.2c-0.9,0.7-1.5,1.2-2.6,1.5c-2.3,0.6-5.9-0.7-8.2-1.4c-5.8-1.9-13.4-5.5-19.5-5.4c-2.2,0-2.8,0.9-4.1,2.3
	c-1.4,4-0.2,9.1,0.5,13.2l2.8,16.9c1.2,5.7,3.4,12.5,3.4,18.3c0,2-0.6,2.9-2,4.3c-1.8,0.7-2.5,0.8-4.3,0.3
	c-3.6-3.2-3.8-9.9-4.5-14.4c-1-6.3-1.7-12.8-3.2-19c-0.6-2.6-1.2-4.8-3.7-6.3c-1.5-0.2-2.5-0.3-3.9,0.5c-1.6,0.8-2,2.3-2.5,3.9
	l-0.2,0.6L93.6,818c-1,4.4-2.3,16.1-6.3,18.6c-1.6,1-2.3,0.8-4,0.3c-1-1-1.8-1.5-2.1-3c-0.4-2.3,0.6-5.8,1.1-8.2l4.2-18.8
	c1.2-5.1,2.6-10.4,2.1-15.7c-0.2-2.2-0.8-2.7-2.4-4c-2.5-0.4-4.2,0.8-6.3,2c-6,3.4-11.3,7.5-16.9,11.4c-2.1,1.4-4.2,2.7-6.8,2.1
	c-1.4-0.3-2.6-1.2-3.2-2.6c-0.7-1.3-0.4-2.7,0.2-4c1.6-2.9,6.2-6.3,8.8-8.6l22.7-19.6c4.1-3.5,8.3-7.5,12.6-10.7
	C98.4,756.6,99.8,756,101.1,755.6z"/>
<path class="st5" d="M913.3,755.5c4.1,0.6,7.7,1.3,11,4.2l22,20.3c4.7,4.3,10.4,8.5,14.5,13.3c1.1,1.3,1.7,2.5,1.8,4.2
	c0.1,1.9-0.6,3.9-1.9,5.3c-0.9,0.9-2.8,2.1-4.1,2.2c-2.3,0.2-4.9-2.1-6.6-3.5l-12.1-9c-2.9-2.2-5.8-5-9.5-5c-0.7,0.6-1.5,1.1-1.7,2
	c-0.3,2.3,1,6,1.6,8.3l5,20.1c1.1,4.1,3.3,10.3,2.8,14.5c-0.2,1.9-1.3,2.9-2.7,4c-2,0.4-2.4,0.4-4.4-0.2c-0.7-0.7-1.5-1.4-1.9-2.3
	c-1.3-2.9-1.8-6.7-2.5-9.8l-4.3-18.1c-0.6-2.5-1.5-7.4-3.5-9.1c-1-0.9-2.5-1.6-3.9-1.4c-2.3,0.4-3.2,2.6-3.8,4.5
	c-2.7,8.6-2.3,19.2-3.5,28.2c-0.3,2.5-0.4,6.4-2.2,8.3c-0.8,0.9-1.9,1.2-3.1,1.2c-0.9,0-2.1-0.4-2.7-1.1c-1.1-1.2-1.6-2.1-1.8-3.7
	c-0.4-3.5,0.5-7.5,0.9-11.1c1-9.3,2.6-18.8,2.9-28.1c0.1-3.5,0.4-7.2-2.3-9.9c-0.8-0.9-1.5-1.3-2.7-1.4c-2.4-0.2-8,3.6-10.3,4.6
	c-3.5,1.6-6.7,2.5-10.6,2.3c-2.9-0.1-4.8-0.8-6.8-2.9c-0.5-1.4-0.8-1.8-0.2-3.2c1.3-2.8,8.6-6,11.2-7.6l21.4-12.9
	C903.8,760.2,908.2,757.3,913.3,755.5z"/>
<path class="st9" d="M185.8,205l-64.7,12l14.3-58.1L148,108c0.7-2.9,2-11.4,3.8-13.1l1,1.6c1.3,12.9,5.4,25.6,9.1,38L185.8,205z"/>
<path class="st8" d="M688,719.5l94.8-0.1l-30.2,49.4c-6.3,9.9-12.5,20.6-20,29.5c-3.2-4.5-5.5-9.6-8.2-14.5L711.1,760L688,719.5z"/>
<path class="st10" d="M223.9,377.5c7.3-1.4,14.6-4.1,21.8-6l45.5-11.9l12.3-3.4c3.9-1.2,7.7-2.6,11.8-3l-12.8,20.7
	c-0.8,1.2-2.2,3.9-3.4,4.7c-0.9,0.6-3.3,1-4.3,1.3l-14.4,3.8l-171.7,44.1c1-6.4,0.7-12.9,0.7-19.3l0.2-0.3L223.9,377.5z"/>
<path class="st11" d="M273.4,269.4l48.3,73.6l-6.4,10.1c-4.1,0.4-7.9,1.8-11.8,3l-12.3,3.4l-45.5,11.9c-7.2,1.9-14.5,4.6-21.8,6
	c0.2-3,2.2-6.4,3.4-9.2l9-19.4L273.4,269.4z"/>
<path class="st2" d="M501.2,69.3l11.1-17.1L804.4,519l-0.4,0.5l-11.1,17c-4-3.5-7.1-9.6-9.9-14.1l-17.2-27.7l-27.6-45.2L723,426
	L611,244.2l-14.5-22.8l-60.4-98.9l-31.3-49.8C503.8,71.3,502.7,70.3,501.2,69.3z"/>
<path class="st12" d="M807.4,524L833,565l10.4,16.4c2.8,4.4,6.8,9.6,7.9,14.8c0.8,4,0.5,8-1,11.7c-2,4.6-5,9.1-7.7,13.3l-9.1,15.1
	l-48.1,78.4c-5.2,0.5-10.8-0.1-16-0.1l-34.1-0.1l-45.6,0L807.4,524z"/>
<path class="st1" d="M209.8,202.5l10.7-2.1c1.9-0.4,3.9-1.1,5.8-1l47.1,70.1l-37.1,79.4l-9,19.4c-1.3,2.8-3.2,6.2-3.4,9.2L109.7,408
	c-0.3-4.4,0-9,0.2-13.4L112,362l8.6-93.6l5.9-46.2c11.8-1.2,23-3.5,34.6-5.5l32.2-5l14.1-2c2-0.2,4.3-0.7,6.3-0.2l0.8,0.2l0.3-0.7
	C213.4,206.6,211.4,204.7,209.8,202.5z"/>
<path class="st13" d="M142.8,232.1c2.4-0.1,5.2,0.1,7.5,1c3.6,1.3,7.4,5.1,8.9,8.6c1.5,3.4,1.6,7.9,0.2,11.3
	c-1.7,4.2-4.7,6.7-8.8,8.4c-3,0.2-5.5,0.3-8.3-0.9c-3.9-1.7-7-4.5-8.6-8.5l-0.3-0.7c-0.2-0.6-0.5-1.2-0.6-1.9
	c-0.8-3.8-0.1-8.4,2-11.7C136.7,234.5,139.2,232.9,142.8,232.1z"/>
<path class="st14" d="M149.1,238.5c1.6-0.1,3.2-0.2,4.7,0.3c2,0.7,3.7,2.7,4.5,4.5c1.1,2.7,1.1,6.3-0.1,9c-1.1,2.4-3,3.6-5.4,4.5
	c-1.1,0.2-2.1,0.2-3.2-0.1c-2.7-0.8-4.9-2.9-6-5.4c-1.1-2.4-1.1-5.3-0.1-7.7C144.5,240.9,146.6,239.7,149.1,238.5z"/>
<path class="st13" d="M149.6,241.8l1.7,0l1.3,1.3c0,1.8-0.3,1.8-1.3,3.2c-0.5,0-0.6,0-1.1-0.3c-1.2-0.6-1.6-1.5-1.9-2.7L149.6,241.8
	z"/>
<path class="st13" d="M207.3,221c2.3-0.3,4.8-0.3,7,0.4c4,1.3,7.5,4.1,9.3,8.1c2,4.5,2.1,10,0.1,14.5c-1.8,4.1-4.4,6.7-8.5,8.2
	c-3.5,0.4-6.9,0.2-10.1-1.5c-3.1-1.7-6-5.3-7-8.6c-1.5-4.8-1.7-10.3,0.8-14.8C200.9,223.8,203.6,222.1,207.3,221z"/>
<path class="st14" d="M212.1,227.8c1.4-0.5,3-0.6,4.5-0.2c2.4,0.6,3.7,2.5,4.8,4.5c1.3,2.4,1.8,5.9,0.9,8.5c-0.8,2.6-2.6,4-4.9,5.3
	c-1.3,0.2-2.9,0.3-4.2,0c-1.9-0.4-3.7-2.2-4.6-3.8c-1.3-2.3-1.7-5.7-1-8.3C208.2,231,209.7,229.2,212.1,227.8z"/>
<path class="st13" d="M215.7,229.2l1.1,0c1.3,0.7,1.9,0.9,2.7,2.3c-0.6,1.1-1.7,1.8-2.7,2.6l-1.5,0.7c-1.1-0.9-1.2-1.2-1.8-2.5
	C214.1,231.1,214.8,230.2,215.7,229.2z"/>
<path class="st14" d="M221.3,259.1l1.4-0.2c2.2,2.1,2.4,9.6,2.7,12.8c0.9,12.1-1.8,23.6-9.9,32.8c-5.7,6.5-13.8,10.8-22.4,11.4
	c-11.2,0.7-20.2-3.9-28.3-11.1c-9.4-9.1-13.8-19.5-16.4-32.1L221.3,259.1z"/>
<path class="st13" d="M207.1,263.8l0.7,0.1c0.1,0.5,0.1,0.6,0,1.2c-1.1,5.5-5.7,10.3-10.4,13c-5.7,3.3-13.2,4.7-19.6,2.8l-0.9-0.3
	c-2.6-0.8-4.8-1.8-7.2-3.1c-2.3-1.6-3.8-3.2-5.5-5.3c1.2-0.8,3.4-0.9,4.9-1.2l14.1-2.5L207.1,263.8z"/>
<path class="st15" d="M169.4,305.7l0.6-0.9c2.3-4,5.8-7,9.7-9.4c7.3-4.4,15.5-6.7,23.9-4.7c3.5,0.9,12.7,2.4,14.8,5.2
	c-4.4,8.1-11.3,14-20.1,16.6c-8.2,2.4-17.1,0.4-24.4-3.8L169.4,305.7z"/>
<path class="st16" d="M166.8,303.5c-8.6-8.5-12.3-16.3-15.6-27.7l10.2-3.1c3.8,4.6,9,8.7,14.9,10.4l0.7,0.2l0.7,0.2
	c6.9,1.9,15.3,0.1,21.4-3.4c6.9-3.9,9.7-9.3,11.8-16.7l11.4-2.1c2.5,10,1.9,21.3-1.9,30.9l-1.8,3.8l0,0c-2.1-2.7-11.3-4.3-14.8-5.2
	c-8.4-2-16.7,0.2-23.9,4.7c-3.9,2.4-7.4,5.4-9.7,9.4l-0.6,0.9L166.8,303.5z"/>
<path class="st17" d="M166.8,303.5c3.5-5.7,9.6-9.9,15.7-12.6c13.1-5.8,24.9-3.7,37.8,1.1l-1.8,3.8l0,0c-2.1-2.7-11.3-4.3-14.8-5.2
	c-8.4-2-16.7,0.2-23.9,4.7c-3.9,2.4-7.4,5.4-9.7,9.4l-0.6,0.9L166.8,303.5z"/>
<path class="st9" d="M242.2,719l439.9,0.2c2.1,2.2,3.5,5.5,5,8.1l8.3,14.7l33.8,59.6l-437.7-0.4c-2.1-1.4-3.5-4.4-4.7-6.6l-6.1-10.4
	L242.2,719z"/>
<path class="st5" d="M501.2,69.3c1.5,1,2.6,2,3.7,3.5l31.3,49.8l60.4,98.9l14.5,22.8L723,426l15,23.5l27.6,45.2l17.2,27.7
	c2.9,4.5,5.9,10.6,9.9,14.1l-109.7,178l-442.8-0.1l-70.7-117.1L501.2,69.3z"/>
<path class="st14" d="M593.4,307.6c10.3-0.4,19.3,0.7,28.6,5.4c6.2,3.1,12.2,7.5,16.8,12.7c1.4,1.6,3,3.5,3.6,5.6
	c0.3,1.2,0,2.4-0.6,3.4c-1.1,1.7-2.1,2.3-4,2.8h-0.6c-3.1-0.3-6.6-5.8-8.8-8c-5.8-5.7-14.7-10.6-22.9-11.3c-4.4-0.4-9,0.2-13.4,0.2
	c-1.2-0.5-1.8-0.8-2.5-1.9c-0.7-1.2-0.9-3.3-0.5-4.6C589.9,309.4,591.2,308.8,593.4,307.6z"/>
<path class="st14" d="M417.8,307.7c3.5-0.4,9.4-1,12.2,1.5c1.1,1,1.6,1.9,1.7,3.4c0.1,1.7,0,3.5-1.3,4.7c-2.2,2.1-6.1,0.7-8.9,0.8
	c-13.3,0.4-24.9,6.3-33.8,16.1c-1.2,1.3-2.1,2.2-3.6,3.1c-1.5,0.2-2.5,0.3-3.9-0.4c-1.5-0.7-2.9-2.2-3.2-3.9
	c-0.3-1.6,0.8-3.4,1.7-4.7C387.7,316.3,403.2,309.8,417.8,307.7z"/>
<path class="st14" d="M351.4,482.7c10.6-1.2,21.6,1.1,30.4,7.2c4.2,2.9,7.9,6.9,8.7,12.1c0.7,4.5-0.4,9.2-3.2,12.7
	c-6.6,8.4-16.6,11.4-26.8,12.7c-10.3,0.8-22.1-1.1-30.8-7.1c-4.4-3.1-8-7.6-8.8-13c-0.7-4.7,0.6-8.6,3.5-12.3
	C331,486.6,341.5,484.1,351.4,482.7z"/>
<path class="st10" d="M351.1,487.2c8.6-1.2,19,0.5,26.5,5.1c3.9,2.4,7.2,5.6,8.2,10.2c0.6,3-0.4,6.6-2.2,9
	c-5.5,7.6-14.2,9.7-23,10.9c-9.3,0.5-19-0.3-27-5.4c-3.6-2.3-7.1-5.6-8-10c-0.6-3,0.2-6.3,2-8.8
	C333.3,490.6,342.2,488.3,351.1,487.2z"/>
<path class="st14" d="M663.5,481.7c10-0.6,22,1.9,30,8c4,3,7.4,7.6,8,12.7c0.5,4.5-1.5,9.2-4.3,12.7c-6.9,8.4-17.8,10.7-28,12
	c-10.7,0.2-21-1.1-29.9-7.7c-4.4-3.3-8.3-7.9-9-13.6c-0.5-4.3,0.9-8.6,3.7-11.9C641.2,485.3,652.8,482.5,663.5,481.7z"/>
<path class="st10" d="M661.7,486.2c9.2-0.6,19.6,0.8,27.5,5.9c3.8,2.4,7.2,6.3,8,10.9c0.5,3.1-1.2,6.6-3,9
	c-5.2,6.7-14.6,9.2-22.7,10.2l-5.4,0.4c-9.2,0-20.5-2.4-27.1-9.3c-1.8-1.9-5.1-6.9-4.5-9.8l0.3-0.8c0.6-2.2,1-3.9,2.5-5.7
	C643.1,489.3,652.7,487,661.7,486.2z"/>
<path class="st14" d="M589.6,364.7c15.7-0.9,30.6,2,43.4,11.6c15.2,11.4,24.2,26.6,26.8,45.4c2.5,17.6-3.2,36-13.9,50
	c-10.6,13.8-26.4,21.4-43.3,23.7c-16.1,1.1-30.5-2.3-43.5-12c-13.9-10.4-24.2-26.2-26.6-43.6c-2.4-17.5,1.4-36,12.1-50.2
	C555.9,374.8,571.4,367.1,589.6,364.7z"/>
<path class="st13" d="M588.3,368.7c14.8-1.3,28.9,1.3,41.2,9.9c15,10.6,23.4,25.5,26.5,43.3c2.7,15.6-2.8,32.8-11.9,45.5
	c-10,14-23.3,20.9-40,23.8c-15.1,1.6-28.7-1.3-41.1-10.1c-14.4-10.2-23.5-24.7-26.4-42.1c-2.7-16.2,1.4-33.6,11.1-46.9
	C557.5,378.7,571.9,371.2,588.3,368.7z"/>
<path class="st14" d="M599.6,400.6c8.4-0.8,16.6,0.3,23.9,4.8c8.2,5,14.5,12.7,16.6,22.2c2,8.8,1.5,18.7-3.6,26.5
	c-5.2,8-14.5,13.3-23.7,15.3c-9.4,0.9-17.6,0.1-25.7-5.2c-7.8-5-13.8-13.5-15.6-22.6c-1.9-9.5-0.3-19.1,5.2-27.1
	C582.3,406.4,590.1,402.3,599.6,400.6z"/>
<path class="st13" d="M632.5,444.8c1-0.3,1-0.2,1.9,0l0.6,1.5c-0.5,2.8-1.5,4.6-3.6,6.5l-1.3-0.3l-0.9-1.5
	C629.5,448.4,630.8,446.6,632.5,444.8z"/>
<path class="st13" d="M586.6,411.6c2.4-0.3,5.4-0.4,7.7,0.2c3.3,1,6,2.9,7.7,6c1.7,3.1,2,6.9,0.9,10.3c-1.3,4.2-4.2,6.3-7.9,8.2
	c-2.8,0.4-5.7,0.8-8.4,0c-2.8-0.9-5.9-4-7.2-6.5c-1.4-2.6-1.5-7.5-0.5-10.2C580.2,415.6,583,413.4,586.6,411.6z"/>
<path class="st14" d="M415.4,365.7l0.2,0c15.1-1.3,30.9,3.8,43.1,12.5c14.4,10.3,24,26.2,26.8,43.6c3,18.7-0.9,35.6-12.2,50.9
	c-11.2,15.2-27.3,23.1-45.6,25.8c-17.8,1.1-32.7-4.1-46.8-14.8c-14.3-10.9-22.5-27.5-24.9-45.1c-2.2-16.6,2.7-34.2,12.9-47.4
	C380.7,375.7,396.4,368.1,415.4,365.7z"/>
<path class="st13" d="M414.2,369.7c15.1-1.5,29.3,2.4,41.6,11.3c15.1,10.8,23.2,25.7,26.1,43.8c2.6,15.7-1.9,32-11.2,44.8
	c-10,13.8-24.9,22.2-41.6,24.9c-15.2,1.3-29.4-1.9-41.9-10.9c-15.4-11.1-24.2-25.7-27.1-44.2c-2.4-15.4,1.7-32,11-44.5
	C382.1,380,396.2,372.2,414.2,369.7z"/>
<path class="st14" d="M429.8,400.2c7.9-0.7,16,1.9,22.6,6.3c7.8,5.2,13.4,13.4,15.1,22.7c1.7,9.1-0.1,19.2-5.5,26.8
	c-5.8,8.3-14.6,12.2-24.3,14c-9.2,0.2-17.2-0.9-24.9-6.4c-7.9-5.6-13.1-13.9-14.5-23.5c-1.4-9.1,1-19.2,6.6-26.5
	C411,405.4,419.8,401.5,429.8,400.2z"/>
<path class="st13" d="M455.9,445.2l1.4-0.2c1.1,0.8,1.2,1,1.7,2.2c-0.4,2.9-0.7,4.2-3,6l-1.2,0.4l-0.9-0.5c-0.3-0.8-0.7-1.4-0.7-2.3
	C453.3,448.3,454.1,447,455.9,445.2z"/>
<path class="st13" d="M415.6,410.6c2.3-0.1,4.9-0.4,7.1,0.4c3.3,1.3,5.9,3.7,7.2,7c1.2,2.9,1.5,6.5,0.1,9.5c-1.7,3.8-4.5,5.6-8.2,7
	c-2.2,0.4-4.6,0.4-6.8-0.3c-3.6-1.1-6.1-3.7-7.7-7c-1.2-2.7-1.3-6.4-0.1-9.2C409,414,411.8,412.2,415.6,410.6z"/>
<path class="st14" d="M393.3,524.2c4,2.6,7.3,6.1,11.4,8.8c18.3,11.7,40.6,19.3,62,23.3c47,8.8,98.5,3.4,140.8-19.5
	c6.5-3.5,12.5-7.8,18.5-12c1.5,8,1.7,15.4,1.7,23.5c0.2,29.2-6.3,56.8-21.9,81.8c-9.4,14.9-22.8,28.1-37.6,37.6
	c-24.6,15.8-54.7,20.6-83,14.2c-30.5-6.9-57.9-27.1-74.5-53.5C391.7,598.2,385.5,558.9,393.3,524.2z"/>
<path class="st18" d="M517,637.3l4.7,0.9c12,2.4,22.4,8.6,30.3,17.9c2.9,3.5,5.4,7.4,7.9,11.2c-26.6,13-52.9,16.2-81.5,7.8
	c-6.3-2-12.6-4.5-18.2-7.7c1.8-3.6,3.9-7,6.6-10.1c10.9-12.2,24.6-18.6,40.8-19.5l-4.8,27.1c2.2-3.1,3.7-6.8,5.5-10.2L517,637.3z"/>
<path class="st13" d="M395.3,531c11.6,9.3,26.6,16,40.5,21c26.9,9.6,55.5,12.9,83.9,11.7c23.4-1,46.9-5,68.7-13.7
	c8.1-3.2,15.9-6.9,23.5-11.2c4-2.3,7.8-5.2,11.9-7.1c-3.1,5.4-6.3,10.4-10.2,15.3c-13.1,14.9-31.8,25.6-50.4,32.2
	c-37.6,13.3-83.4,13.8-119.7-3.8C423.6,565.7,402.9,553,395.3,531z"/>
<path class="st13" d="M734.9,94.5c1.1,1,1.3,1,1.6,2.5l-0.6,1.2c0.7,1,0.3,0.6,1.1,1.2c-0.5,1.5-1,2.3-2.5,3
	c-0.7,0.3-1.6,0.4-2.3,0.6l-5.4,1.9l-2.8-0.7l-0.8-0.8l0.8-0.3l0.7-0.5c0.8,0.1,1.2,0.1,2-0.3l0.8-0.4c2-1,3.7-2,5.2-3.8l0.6-0.7
	C734,96.5,734.4,95.7,734.9,94.5z"/>
<path class="st19" d="M734.9,94.5l0.3-1c0.6-1,0.5-0.8,0.5-2l0.5-0.3l0.9,1.3l1.1,0.2l0.4,0.8c1.1,1.9,3.2,5.2,5.3,6l1.3,1.5l1-0.2
	l0.5,0.3c1.9,1.2,3.6,1.3,5.5,2.1v1l-2.6,0.9c-0.2,0.6-3.5,2-4.2,2.6L745,108c-1.4,0.7-2.3,1.7-3.3,2.9l-0.4,0.6
	c-0.5,0.6-0.8,1-1.1,1.7l-1.1,2.3c-1,2-1.3,4.1-2.7,5.7c-0.6-0.5-0.8-0.7-1-1.5L735,119l-0.2-0.7c-0.7-2.6-1.5-4.8-3-7.1l-0.5-0.7
	c-0.7-1-1.4-1.5-2.3-2.3c-0.8-0.6-1.4-1.2-2.2-1.7c-1.5-0.8-2.1-0.7-2.7-2.3l2.8,0.7l5.4-1.9c0.8-0.1,1.6-0.2,2.3-0.6
	c1.5-0.7,2-1.5,2.5-3c-0.8-0.6-0.4-0.2-1.1-1.2l0.6-1.2C736.2,95.5,736,95.5,734.9,94.5z"/>
<path class="st20" d="M734.9,94.5l0.3-1c0.6-1,0.5-0.8,0.5-2l0.5-0.3l0.9,1.3c0.4,1.6,0.7,2.4,1.8,3.6c0.9,1.1,0.4,0.4,1,1.4
	c0.5,0.8,0.9,1,1.6,1.6l0.9,0.8l-1.1,0c-1.1,0.7-1.7,0.9-3,1l-1.3-1.6c-0.8-0.6-0.4-0.2-1.1-1.2l0.6-1.2
	C736.2,95.5,736,95.5,734.9,94.5z"/>
<path class="st20" d="M726.8,105l5.4-1.9c0.6,1.5,1.2,2.7,2.3,4l0.6,0.7c1.8,0.4,2.8-0.5,4.4-1.3l-2.3,2.5c-1.1,0-2-0.2-3-0.5
	l-2.4,1C730.3,107.7,728.8,106.2,726.8,105z"/>
<path class="st21" d="M737,99.5l1.3,1.6c1.3-0.1,1.9-0.3,3-1l1.1,0l1.3,1.2c-0.7,1.1-1.4,1.2-2.5,1.7l-1.7,3.4
	c-1.6,0.8-2.6,1.7-4.4,1.3l-0.6-0.7c-1.2-1.2-1.7-2.4-2.3-4c0.8-0.1,1.6-0.2,2.3-0.6C736,101.8,736.5,101,737,99.5z"/>
<path class="st14" d="M830.1,34.2l1,0.3c0.2,3.4,0.6,5.9,2.1,9c2.2,4.8,6.2,8.4,11.3,9.7c2,0.5,4.2,0.6,6.1,1.3
	c-3.7,1.6-7.5,3.2-10.8,5.4c-5.1,3.5-6.3,8.1-7.3,13.8L950,149.2l0,96.2c3.4-0.7,6.7-1.6,9.8-3.3c8-4.4,13.2-12.2,15.5-20.8
	c-1.3-2.4-2.1-4.2-1.9-7c0.3-3,1.9-6.2,4.3-8.1c2.5-1.9,5.9-2.5,9-2c3.1,0.5,5.7,2.1,7.4,4.7c2.5,3.7,2.6,8.8,0.2,12.6
	c-1.1,1.8-2.4,3-2.8,5.1c-1.4,6.8-5.2,13.3-9.6,18.6c-8.7,10.3-18.8,15.2-32,16.3l-0.1,30.9c0,5.7,0.2,11.5-0.1,17.2
	c0,0.8-0.2,1.9-0.6,2.5c-0.6,1-2.1,1.3-2.1,2.6c10.1,6.9,17.2,16.4,20.7,28.1c2.8,9.4,3.6,22.4-1.5,31.2c-1.1,1.9-2.8,3.5-5.1,3.9
	c-2.8,0.5-6.2-0.3-8.5-2.2c-6.3-5.2-2.7-10.8-1.4-17.1c0.5-2.5,0.3-5.6,0-8.2c-1.7-12.5-9.3-18.9-18.8-26l-82,56.2
	c2.7,6.7,4.2,12.9,4.9,20.1c0.4,9.3-1.6,19.3-6.3,27.5c-1.6,2.8-4.2,6.5-7.6,7.2c-2.6,0.5-4.6,0.2-6.8-1.4c-2.2-1.5-4.3-4-4.7-6.7
	c-0.6-3.6,0.6-5.8,2.7-8.6c6.8-9.2,5.9-19,4.4-29.7l-11.8,3.9c-4.7-2.1-9.1-5.8-13.3-8.7l-24.2-16.5l-49.2-33.4l-13.7-9.2
	c-3.1-2-6.4-4-9-6.6c-2.4-2.4-4.4-5.5-5.2-8.8c-1.4-6.1-0.7-13.5-0.7-19.7l0-34.6c-9.2-4.3-17.5-9.9-25-16.7
	c-9.7-8.8-19.2-25.7-19.5-39.1c-0.1-3.9,0.6-8.4,3.6-11.2c2.3-2.2,5.2-2.9,8.3-2.8c3.2,0.1,5.6,1.5,7.7,3.8c1.9,2,3.5,4.9,3.3,7.8
	c-0.2,3.7-2.1,6.1-4.6,8.6l-0.5,0.5l0.2,0.9c0.6,1.8,2.1,4,3.1,5.6c5.6,9.9,13.5,17.7,23.3,23.5l0.5-85.9l118.6-76
	c-0.4-3.2-1.1-6.9-2.6-9.8c-2.9-5.6-10.6-7.7-16.1-9.6c4.2-0.8,8.5-1.3,12.1-3.8C828.5,46.9,828.9,40.8,830.1,34.2z"/>
<path class="st3" d="M827.9,47l1.4,1.1c-0.3,1.9-1.3,3.4-2.2,5c-0.4,0.9-0.6,1.2-1.3,2l-7.4,1.3c-0.9-0.4-1.7-0.4-2.1-1.3l6.6-2.6
	C825,50.9,826.3,49.2,827.9,47z"/>
<path class="st0" d="M827.9,47l2.7-6.1l2.7,6.1c-0.7,3.4-1.3,5-4.3,7c-1.1,0.7-2,1.1-3.3,1c0.8-0.7,0.9-1,1.3-2c0.9-1.6,2-3.1,2.2-5
	L827.9,47z"/>
<path class="st6" d="M833.4,47l0.4,0.6c3.6,4.6,7.3,5.9,12.7,7.5c-5.8,2.7-11.7,5.2-14,11.8l-2.1,7.7c-1.2-5.8-2.5-12.3-7.8-15.8
	l-4.3-2.4l7.4-1.3c1.3,0.1,2.2-0.3,3.3-1C832.1,52,832.7,50.4,833.4,47z"/>
<path class="st20" d="M978.5,221.5c-1.4-3.4-3.3-5.4-1.7-9.3c0.8-2,2.5-4,4.6-4.8c1.9-0.7,4.9-0.9,6.8,0.1c2.2,1.1,4,3.5,4.6,5.8
	c0.5,1.9,0.5,4.1-0.5,5.9c-1.1,1.8-3,3-4.9,3.8C984.3,223.3,981.5,222.7,978.5,221.5z"/>
<path class="st18" d="M668.8,192.5c1.5-2.2,3.4-4.5,6.2-5c2.3-0.4,4.6-0.1,6.5,1.3c2.3,1.7,4.1,4.2,4.5,7.1c0.3,2.1-0.3,4-1.7,5.7
	c-1.3,1.6-2.7,2.5-4.4,3.6l-0.9,0.6c-0.9-0.3-1.6-0.7-2.3-1.3c-2.9-1.9-5.9-4.4-6.6-8C669.7,195.1,669.3,193.8,668.8,192.5z"/>
<path class="st15" d="M978.5,221.5c3,1.2,5.8,1.8,9,1.6l1.2,1.6c-0.3,6.5-4.6,13.4-8.7,18.3c-8.3,9.9-17.3,14.6-30,15.7l0-10.6
	c3.6-0.5,7.2-1.4,10.4-3.1c9-4.7,15-13.1,17.8-22.7L978.5,221.5z"/>
<path class="st15" d="M846.8,383.2l1.3,0.2c4.4,8.8,5.6,19.1,3.7,28.8c-1.1,5.8-4.5,16.4-9.7,19.7c-1.7,1.1-2.9,1-4.9,0.6
	c-1.9-0.9-3.6-2.7-4.1-4.8c-1-3.8,1.1-6,2.8-9c6.1-10.4,6.1-19.5,3.2-30.9L846.8,383.2z"/>
<path class="st15" d="M679,205.7c2.6,2.6,4.4,7.2,6.3,10.4c6.1,10.2,14.7,17.2,24.7,23.2l0,12.7c-14.1-6.8-25.9-16.3-34.1-29.7
	c-5.1-8.5-9.6-20-7.1-29.9c0.5,1.3,1,2.6,1.3,4c0.7,3.6,3.7,6,6.6,8C677.4,205,678.1,205.4,679,205.7z"/>
<path class="st15" d="M944.4,316.3c4.9,3.8,9.4,7.4,13.2,12.4c8,10.5,10.8,22.9,8.8,36c-0.5,3.4-1.7,7.9-4.8,9.9
	c-1.8,1.2-3.7,0.5-5.6,0c-6.8-4.5-2.6-9.8-1.5-16.1c0.6-3.6,0.3-7.8-0.7-11.4c-3-11.4-9.5-18.2-19.4-24.1L944.4,316.3z"/>
<path class="st18" d="M713.8,310.4c-0.8-6.3-0.5-12.8-0.5-19.1l-0.1-28.9l-0.1-110.3L813,88c2.5-1.6,14.6-10.6,16.7-10.8
	c0.5,0,0.9,0.2,1.4,0.3l0.1,9.2l-0.3,2.5l-63,42.6l-25.5,17.2c-3,2.1-6.8,4.2-9.3,6.9L733,261.2l0.1,25.4c0,2.2,0.6,6.1,0,8.1
	c-0.1,0.4-0.4,0.8-0.7,1.1l-1.5,1.5l0,1C725.4,302.4,719.8,307.3,713.8,310.4z"/>
<path class="st17" d="M831.1,77.5c4,1.4,7.7,4.1,11.3,6.4l22.5,14.5l82.2,52.3L946.6,311c-5.4,4.8-11.6,8.4-17.6,12.4l-22.5,15.4
	l-41.6,28.5c-9.3,6.4-18.6,13.7-28.6,18.8c-2.5,1.3-5.3,2.2-7.9,3.3c-0.9,0.3-1.8,0.5-2.8,0.6c-4.7-2.4-9.1-6-13.5-9.1l-27.4-18.7
	l-44-29.8c-6.8-4.6-14.3-8.9-20.6-14c-2.8-2.3-4.7-4.9-6.4-8c6.1-3.1,11.7-8,17.2-12l0-1l1.5-1.5c3,0.6,6.8,4.2,9.5,6l41.4,26.7
	l44.1,27.9c0.5-0.7,0.4-1,0.5-1.9c2.4-4.1,6.2-5.9,10-8.3l16.9-10.4l28.8-18.1c7.5-4.6,15.3-8.8,22.3-14.1
	c6.4-4.9,12.6-11.6,13.6-20l0.1-0.7c1.3-10.6,0.4-22.3,0.4-33c0-30.2,2.2-62.9-7.5-92c-2.6-7.6-5.8-15.6-11.1-21.8
	c-4.2-5-9.6-8.7-14.9-12.4l-21-13.9c-11.1-7.4-22.1-15.5-34-21.4l-0.3-1.7L831.1,77.5z"/>
<path class="st14" d="M732.4,295.9c3,0.6,6.8,4.2,9.5,6l41.4,26.7l44.1,27.9l1.6,1c11-4.5,21.5-11.6,31.6-17.9l46.6-29
	c5.6-3.5,11.3-8,17.1-11c1.3-0.7,1.8-0.6,3.1-0.3l0.5,1c-1.1,1.6-3.1,2.5-4.8,3.5l-10.6,6.6L851,348.6l-13.2,7.8
	c-2.8,1.6-5.6,3.5-8.7,4.6l-71.5-45.8l-16.3-10.5c-3.5-2.2-7.4-4.3-10.4-7.2L732.4,295.9z"/>
<path class="st15" d="M713.8,310.4c6.1-3.1,11.7-8,17.2-12l0-1c3,2.9,6.9,5,10.4,7.2l16.3,10.5l71.5,45.8c-0.8,3.4-0.5,7.1-0.5,10.6
	l-0.1,17.9c-0.9,0.3-1.8,0.5-2.8,0.6c-4.7-2.4-9.1-6-13.5-9.1l-27.4-18.7l-44-29.8c-6.8-4.6-14.3-8.9-20.6-14
	C717.4,316.2,715.5,313.5,713.8,310.4z"/>
<path class="st15" d="M831.2,86.7l0.3,1.7c11.9,5.9,22.9,14.1,34,21.4l21,13.9c5.4,3.7,10.7,7.4,14.9,12.4
	c5.2,6.2,8.5,14.2,11.1,21.8c9.7,29.1,7.5,61.8,7.5,92c0,10.7,0.9,22.4-0.4,33l-0.1,0.7c-1.1,8.3-7.2,15.1-13.6,20
	c-7,5.3-14.8,9.5-22.3,14.1l-28.8,18.1l-16.9,10.4c-3.8,2.4-7.7,4.3-10,8.3c-0.1,0.9,0,1.2-0.5,1.9l-44.1-27.9l-41.4-26.7
	c-2.7-1.7-6.5-5.4-9.5-6c0.2-0.4,0.6-0.7,0.7-1.1c0.5-2,0-5.9,0-8.1l-0.1-25.4l0.1-105.2c2.5-2.7,6.3-4.8,9.3-6.9l25.5-17.2l63-42.6
	L831.2,86.7z"/>
<path class="st14" d="M864.6,155.7c1.4,0.1,2.8,0.3,4.2,0.6c2.8,0.7,5.7,2.6,7.1,5.2c0.7,1.2,0.7,2.2,0.4,3.5l-1.2,0.5l-0.9-0.5
	c-1.6-3.4-2.5-4.6-6-6.1l-0.7-0.3c-2.3-0.1-5-0.3-7,0.9c-1.8,1.1-3.2,3.1-5,4.4l-1.4-0.9c0-1.2-0.1-1.3,0.6-2.2
	C857.4,157.3,860.6,156.2,864.6,155.7z"/>
<path class="st14" d="M795.9,152.6c2.6,0,5.6,0.6,7.9,2.1c1.4,1,3.3,2.6,3.6,4.4c0.2,1.4,0.1,1.5-0.7,2.6l-0.9,0.1
	c-0.7-1.4-1.3-2.7-2.4-3.7c-2.2-2.1-4.8-2.4-7.7-2.4l-0.6,0c-2.3,0.8-4.4,1.5-6.2,3.3c-1.3,1.3-2.3,3.1-4,4l-0.8-0.5
	c-0.2-1.4,0.3-2.3,1.1-3.5C787.5,155,791.5,153.5,795.9,152.6z"/>
<path class="st14" d="M863.1,167.1c5.1-0.1,9.9,1,14,4.2c4.9,3.8,7.8,9.1,8.6,15.2c0.6,5.3-0.8,11.5-4.2,15.6
	c-4.4,5.3-9.7,7.8-16.4,8.6c-4.3,0.4-9.1-0.8-12.8-3.1c-5-3.1-8.6-8.9-9.7-14.6c-1.1-5.7,0.6-12.3,4-16.9
	C850.9,170.4,856.1,168.2,863.1,167.1z"/>
<path class="st13" d="M862.5,169.7c3.5-0.3,7.3,0.1,10.4,1.7c4.7,2.3,8.7,7.1,10.1,12.2c1.4,5.2,0.3,11.5-2.5,15.9
	c-3.3,5.3-8.2,7.8-14.1,9c-4.7,0.1-8.7-0.2-12.8-2.8c-4.7-3-8-8.2-9-13.7c-0.8-4.7,0.6-10.2,3.4-14
	C851.8,172.8,856.3,170.7,862.5,169.7z"/>
<path class="st14" d="M855.5,177.5c1.4-0.1,2.8-0.2,4.2,0.1c3.9,0.7,7.3,3.1,9.4,6.5c2,3.2,2.2,7.5,1.2,11c-1.2,4.1-4.1,6.5-7.7,8.4
	l-0.6,0.1c-1.8,0.3-3.3,0.5-5.1,0c-3.5-0.9-6.4-3.7-7.9-6.9c-1.6-3.3-2.3-8.1-1.1-11.6C849.3,181.4,852.1,179.2,855.5,177.5z"/>
<path class="st14" d="M796,166.6c4.7-0.2,8.2,0.3,12.3,2.7c5.4,3.1,9.6,8.6,11,14.7c1.3,6,0,12.4-3.4,17.5c-4,5.9-9.4,8.6-16.2,9.9
	c-4.3,0.3-8.5-0.5-12.3-2.4c-5-2.5-8.8-7-10.5-12.2c-2.2-6.4-1.3-12.7,1.9-18.6C782.5,171.1,788.7,168.6,796,166.6z"/>
<path class="st13" d="M796.2,169.2c4.8-0.2,9.1,0.6,13.1,3.5c4.1,3,7.5,8,8.2,13.1c0.8,5.5-1,10.9-4.2,15.3c-3.5,4.8-8.5,7-14.2,7.9
	c-4.5,0.3-8.7-0.7-12.5-3.2c-4.2-2.7-7.3-7.4-8.2-12.3c-1-5.4,0.2-11.6,3.6-16.1C785.6,172.5,790.2,170.1,796.2,169.2z"/>
<path class="st14" d="M788.5,177.6c2.1-0.3,4.2-0.4,6.2,0c3.5,0.8,6.7,2.9,8.6,6c2.1,3.5,2.5,8.2,1.4,12.1c-1.2,4-3.4,6.3-7,8.2
	c-1.7,0.5-3.6,0.8-5.4,0.5c-3.5-0.5-6.8-3.1-8.6-5.9c-2.4-3.7-2.9-8-2-12.2C782.6,182.2,785.2,179.7,788.5,177.6z"/>
<path class="st14" d="M831.1,232l16.1,0c2.9,0,6.1-0.2,8.9,0.4c1.3,0.3,2,0.8,2.9,1.7c2.1,2.1,2.2,5.2,2,8c-0.4,9.1-4.8,17-11.5,23
	c-6.4,5.7-13.8,7.6-22,8.4c-7.5-0.4-14.7-3.1-20.4-8c-6.5-5.5-10.5-13.8-11.2-22.2c-0.2-3.1,0-7,2.2-9.3c0.9-1,1.9-1.5,3.2-1.8
	c3.1-0.7,6.8-0.3,10-0.3L831.1,232z"/>
<path class="st13" d="M802.8,234.8l1.2-0.2c4-0.3,8.3,0,12.4,0l24.3,0.1c3.6,0,12.6-0.9,15.4,1.3c0.4,1.3,0.6,1.6,0.3,2.9l-1.9,0.3
	l-36.2,0.1c-4.7,0-10.8,0.7-15.4-0.3c-1.3-0.3-1.7-0.7-2.4-1.8C801,235.9,801.7,235.5,802.8,234.8z"/>
<path class="st8" d="M824.2,257.6c8.7-0.2,15.3-0.4,22.1,5.9c-4.1,3.9-8.7,5.4-14.2,6.4c-8.7,1-15-0.9-22.3-5.7
	C814.6,260.6,818.3,258.7,824.2,257.6z"/>
</svg>
